<?xml version="1.0" encoding="UTF-8"?>
<!--Generator: Apple Native CoreSVG 232.5-->
<!DOCTYPE svg
PUBLIC "-//W3C//DTD SVG 1.1//EN"
       "http://www.w3.org/Graphics/SVG/1.1/DTD/svg11.dtd">
<svg version="1.1" xmlns="http://www.w3.org/2000/svg" xmlns:xlink="http://www.w3.org/1999/xlink" width="20.2832" height="19.9316">
 <g>
  <rect height="19.9316" opacity="0" width="20.2832" x="0" y="0"/>
  <path d="M19.9219 9.96094C19.9219 15.4004 15.4102 19.9219 9.96094 19.9219C4.52148 19.9219 0 15.4004 0 9.96094C0 4.51172 4.51172 0 9.95117 0C15.4004 0 19.9219 4.51172 19.9219 9.96094ZM4.77539 4.76562C4.59961 4.94141 4.59961 5.24414 4.77539 5.41016L14.5215 15.1562C14.6875 15.3223 14.9902 15.3223 15.166 15.1562C15.3418 14.9609 15.3418 14.6875 15.166 14.5117L5.41992 4.76562C5.24414 4.58984 4.96094 4.58984 4.77539 4.76562ZM3.1543 9.92188C3.1543 12.0605 4.51172 13.7305 6.34766 13.7305C8.21289 13.7305 9.15039 12.207 9.96094 12.207C10.3312 12.207 10.7234 12.5175 11.2149 12.8583L9.51009 11.1552C8.32463 11.4127 7.69029 12.627 6.34766 12.627C5.03906 12.627 4.24805 11.6504 4.24805 9.92188C4.24805 8.60118 4.81963 7.89402 5.87334 7.52212L5.05293 6.70253C3.88106 7.24763 3.1543 8.21909 3.1543 9.92188ZM7.74679 6.08481L8.78665 7.12363C9.15657 7.11286 9.54915 7.10938 9.96094 7.10938C13.5449 7.10938 15.6738 7.37305 15.6738 9.92188C15.6738 11.3503 15.1336 12.2652 14.2064 12.5379L15.0125 13.3432C16.0769 12.7344 16.7676 11.4474 16.7676 9.92188C16.7676 6.39648 13.6621 6.00586 9.96094 6.00586C9.18896 6.00586 8.44217 6.02294 7.74679 6.08481Z" fill="#000000" fill-opacity="0.85"/>
 </g>
</svg>
